<?xml version="1.0" encoding="UTF-8" standalone="no"?>
<!DOCTYPE svg PUBLIC "-//W3C//DTD SVG 1.1//EN" "http://www.w3.org/Graphics/SVG/1.1/DTD/svg11.dtd">
<svg width="100%" height="100%" viewBox="0 0 512 512" version="1.1" xmlns="http://www.w3.org/2000/svg" xmlns:xlink="http://www.w3.org/1999/xlink" xml:space="preserve" xmlns:serif="http://www.serif.com/" style="fill-rule:evenodd;clip-rule:evenodd;stroke-linejoin:round;stroke-miterlimit:2;">
    <circle cx="256" cy="256" r="256"/>
    <g transform="matrix(6.09761e-17,0.995816,-0.796653,4.87809e-17,676.916,-133.077)">
        <path d="M390.712,255.995L453.474,381.52L327.949,381.52L390.712,255.995Z" style="fill:white;"/>
    </g>
    <g transform="matrix(-6.23561e-17,0.995816,0.796653,4.767e-17,-164.886,-133.077)">
        <path d="M390.712,255.995L453.474,381.52L327.949,381.52L390.712,255.995Z" style="fill:white;"/>
    </g>
    <path d="M352.291,147.441C347.132,147.441 344.543,143.562 342.923,138.073C337.434,117.387 330.325,111.248 326.126,111.248C321.927,111.248 315.458,119.007 308.36,135.164C298.982,155.52 292.683,177.685 286.864,199.011L323.817,198.961C326.076,203.48 324.247,212.848 318.748,215.438L282.225,215.438C270.277,255.5 260.219,294.123 248.262,331.925C241.473,353.251 234.044,373.607 224.676,386.525C214.338,401.062 194.952,414.959 171.686,414.959C155.21,414.959 139.053,407.21 139.053,390.084C139.053,379.416 150.041,369.408 158.759,369.408C162.518,369.258 166.028,371.257 167.807,374.577C175.886,389.114 183.644,397.512 187.193,397.512C190.753,397.512 193.662,392.663 199.471,371.667L241.883,215.468L211.369,215.428C209.109,208.649 212.329,200.521 216.198,198.901L246.572,198.901C252.391,180.165 259.249,161.009 268.937,143.882C283.475,117.717 306.74,97.031 338.724,97.031C362.959,97.031 372.977,108.669 372.977,123.526C372.647,139.363 358.76,147.441 352.291,147.441Z" style="fill:white;"/>
</svg>
